HIERARCHY
ROOT SpineBase
{
  OFFSET 0.000000 0.000000 0.000000
  CHANNELS 6 Xposition Yposition Zposition Zrotation Xrotation Yrotation
  JOINT SpineMid
  {
    OFFSET 0.000000 32.311924 0.000000
    CHANNELS 3 Zrotation Xrotation Yrotation
    JOINT SpineShoulder
    {
      OFFSET 0.036791 24.036317 -0.798338
      CHANNELS 3 Zrotation Xrotation Yrotation
      JOINT Neck
      {
        OFFSET -0.049875 8.020502 -0.609382
        CHANNELS 3 Zrotation Xrotation Yrotation
        JOINT Head
        {
          OFFSET 4.645966 12.872718 5.680917
          CHANNELS 3 Zrotation Xrotation Yrotation
          End Site
          {
            OFFSET 0 0 0
          }
        }
      }
      JOINT ShoulderLeft
      {
        OFFSET -4.303235 -3.691865 -8.577158
        CHANNELS 3 Zrotation Xrotation Yrotation
        JOINT ElbowLeft
        {
          OFFSET 9.588101 -22.153919 -11.495580
          CHANNELS 3 Zrotation Xrotation Yrotation
          JOINT WristLeft
          {
            OFFSET 8.222766 -24.484072 4.985262
            CHANNELS 3 Zrotation Xrotation Yrotation
            JOINT HandLeft
            {
              OFFSET 1.342214 -6.304182 2.059384
              CHANNELS 3 Zrotation Xrotation Yrotation
              JOINT HandTipLeft
              {
                OFFSET 2.067588 -5.399288 1.248162
                CHANNELS 3 Zrotation Xrotation Yrotation
                End Site
                {
                  OFFSET 0 0 0
                }
              }
              JOINT ThumbLeft
              {
                OFFSET -2.195228 -2.001110 -1.688186
                CHANNELS 3 Zrotation Xrotation Yrotation
                End Site
                {
                  OFFSET 0 0 0
                }
              }
            }
          }
        }
      }
      JOINT ShoulderRight
      {
        OFFSET 4.646714 -7.066934 -16.049446
        CHANNELS 3 Zrotation Xrotation Yrotation
        JOINT ElbowRight
        {
          OFFSET 3.147374 -21.223334 -4.789183
          CHANNELS 3 Zrotation Xrotation Yrotation
          JOINT WristRight
          {
            OFFSET 4.098391 -21.844105 1.357769
            CHANNELS 3 Zrotation Xrotation Yrotation
            JOINT HandRight
            {
              OFFSET 2.021428 -4.216228 5.391370
              CHANNELS 3 Zrotation Xrotation Yrotation
              JOINT HandTipRight
              {
                OFFSET 0.219700 -3.411707 -0.826410
                CHANNELS 3 Zrotation Xrotation Yrotation
                End Site
                {
                  OFFSET 0 0 0
                }
              }
              JOINT ThumbRight
              {
                OFFSET -1.643110 1.803017 -2.118688
                CHANNELS 3 Zrotation Xrotation Yrotation
                End Site
                {
                  OFFSET 0 0 0
                }
              }
            }
          }
        }
      }
    }
  }
  JOINT HipLeft
  {
    OFFSET -5.006513 2.173306 -6.499100
    CHANNELS 3 Zrotation Xrotation Yrotation
    JOINT KneeLeft
    {
      OFFSET 8.571757 -31.524254 -2.884261
      CHANNELS 3 Zrotation Xrotation Yrotation
      JOINT AnkleLeft
      {
        OFFSET -7.985285 -23.915390 -2.668757
        CHANNELS 3 Zrotation Xrotation Yrotation
        JOINT FootLeft
        {
          OFFSET -4.465451 -2.129761 8.407176
          CHANNELS 3 Zrotation Xrotation Yrotation
          End Site
          {
            OFFSET 0 0 0
          }
        }
      }
    }
  }
  JOINT HipRight
  {
    OFFSET 3.946049 0.190941 -0.358829
    CHANNELS 3 Zrotation Xrotation Yrotation
    JOINT KneeRight
    {
      OFFSET -14.357003 -25.305732 12.347808
      CHANNELS 3 Zrotation Xrotation Yrotation
      JOINT AnkleRight
      {
        OFFSET -2.888664 -30.826761 2.606653
        CHANNELS 3 Zrotation Xrotation Yrotation
        JOINT FootRight
        {
          OFFSET -6.829159 -3.473040 -10.751922
          CHANNELS 3 Zrotation Xrotation Yrotation
          End Site
          {
            OFFSET 0 0 0
          }
        }
      }
    }
  }
}
MOTION
Frames: 9
Frame Time: 0.033333
56.900184 62.088133 320.726328 -0.000000 0.000000 -34.444961 -0.000000 0.000000 34.444961 -0.000000 0.000000 0.000000 -0.000000 0.000000 0.000000 0.000000 0.000000 0.000000 -0.000000 0.000000 0.000000 -0.000000 0.000000 0.000000 -0.000000 0.000000 0.000000 -0.000000 0.000000 0.000000 0.000000 0.000000 0.000000 0.000000 0.000000 0.000000 -0.000000 0.000000 0.000000 -0.000000 0.000000 0.000000 -0.000000 0.000000 0.000000 -0.000000 0.000000 0.000000 0.000000 0.000000 0.000000 0.000000 0.000000 0.000000 -0.000000 0.000000 34.444961 -0.000000 0.000000 0.000000 -0.000000 0.000000 0.000000 0.000000 0.000000 0.000000 -0.000000 0.000000 34.444961 -0.000000 0.000000 0.000000 -0.000000 0.000000 0.000000 0.000000 0.000000 0.000000
57.019720 62.132894 320.893770 0.169882 -0.124180 -33.513978 -0.210204 0.009736 33.514179 -0.000000 0.000000 0.000000 0.180811 1.102173 -0.477579 0.000000 0.000000 0.000000 -0.000000 0.000000 0.000000 -0.000000 0.000000 0.000000 -1.653737 -0.137233 -0.572994 3.229204 -2.172053 0.064116 0.000000 0.000000 0.000000 0.000000 0.000000 0.000000 -1.529795 -2.702356 -0.092359 1.527139 2.703857 0.020231 0.749350 0.068048 0.988030 2.736830 -4.846033 -2.017372 0.000000 0.000000 0.000000 0.000000 0.000000 0.000000 -0.210204 0.009736 33.514179 -0.000000 0.000000 0.000000 -1.209805 -1.529921 -1.473664 0.000000 0.000000 0.000000 -0.210204 0.009736 33.514179 -0.000000 0.000000 0.000000 -0.000000 0.000000 0.000000 0.000000 0.000000 0.000000
57.109030 62.165669 321.057089 0.303995 -0.217255 -32.706665 -0.373187 0.018547 32.707302 -0.000000 0.000000 0.000000 0.455786 1.857528 -0.873990 0.000000 0.000000 0.000000 -0.000000 0.000000 0.000000 -0.494321 -0.884687 -0.401536 -2.555251 0.548107 -0.635797 5.403780 -3.373877 0.211209 0.000000 0.000000 0.000000 0.000000 0.000000 0.000000 -2.687150 -4.773109 -0.216571 3.828177 3.725408 -0.218122 -0.165285 1.719756 1.698831 5.270597 -10.200229 -3.212100 0.000000 0.000000 0.000000 0.000000 0.000000 0.000000 -1.459651 -0.099287 32.929110 2.304859 -0.503569 -0.353387 -3.413401 -2.586977 -2.408970 0.000000 0.000000 0.000000 -0.373187 0.018547 32.707302 -0.000000 0.000000 0.000000 -0.000000 0.000000 0.000000 0.000000 0.000000 0.000000
57.168116 62.186457 321.216284 0.402290 -0.279193 -32.022453 -0.489120 0.023391 32.023533 -0.000000 0.000000 0.000000 0.820582 2.275765 -1.192493 0.000000 0.000000 0.000000 -0.000000 0.000000 0.000000 -0.802736 -1.156718 -0.560202 -3.360422 0.576178 -0.876915 6.475795 -3.607843 0.397684 0.000000 0.000000 0.000000 0.000000 0.000000 0.000000 -3.542809 -6.336720 -0.342999 5.385698 4.505757 -0.452722 -1.249465 3.726369 1.963668 7.680370 -15.771800 -3.498357 0.000000 0.000000 0.000000 0.000000 0.000000 0.000000 -1.973016 -0.060218 32.337709 3.068839 -0.688334 -0.497915 -4.390473 -3.260251 -3.030657 0.000000 0.000000 0.000000 -1.183638 0.413873 31.442499 0.388881 -0.695415 0.586044 -0.000000 0.000000 0.000000 0.000000 0.000000 0.000000
57.196977 62.195260 321.371357 0.464746 -0.309984 -31.460945 -0.558211 0.021848 31.462308 -0.000000 0.000000 0.000000 1.273645 2.362230 -1.433679 0.000000 0.000000 0.000000 -0.000000 0.000000 0.000000 -1.158181 -1.324584 -0.694801 -3.826239 0.452217 -1.069611 6.430898 -2.900015 0.623366 0.000000 0.000000 0.000000 0.000000 0.000000 0.000000 -4.145756 -7.483282 -0.455819 6.785053 4.684977 -0.726445 -3.175678 6.689110 1.806604 10.234492 -21.412936 -2.763597 0.000000 0.000000 0.000000 0.000000 0.000000 0.000000 -2.340102 0.026465 31.857016 3.580431 -0.826306 -0.625775 -4.880191 -3.552129 -3.261491 0.000000 0.000000 0.000000 -1.377503 0.607960 30.747405 0.404541 -0.922552 0.722664 -0.000000 0.000000 0.000000 0.000000 0.000000 0.000000
57.195612 62.192077 321.522306 0.491365 -0.309638 -31.022117 -0.580661 0.012108 31.023506 -0.000000 0.000000 0.000000 1.816025 2.117649 -1.595461 0.000000 0.000000 0.000000 -0.000000 0.000000 0.000000 -1.567747 -1.390209 -0.806868 -3.942223 0.181707 -1.214732 5.286129 -1.293510 0.930073 0.000000 0.000000 0.000000 0.000000 0.000000 0.000000 -4.529503 -8.276343 -0.546873 8.065898 4.315025 -1.016568 -6.153000 10.855785 1.229054 13.434260 -27.140186 -0.764511 0.000000 0.000000 0.000000 0.000000 0.000000 0.000000 -2.560412 0.154362 31.486890 3.842170 -0.915792 -0.739890 -4.884523 -3.471080 -3.100820 0.000000 0.000000 0.000000 -1.471881 0.821609 30.204121 0.363089 -1.147909 0.829506 -0.000000 0.000000 0.000000 0.000000 0.000000 0.000000
57.164465 62.193717 321.669240 0.457478 -0.311544 -30.730886 -0.552437 0.034014 30.732294 -0.000000 0.000000 0.000000 2.582336 1.573492 -1.746705 0.000000 0.000000 0.000000 -0.000000 0.000000 0.000000 -2.029650 -1.493682 -0.944525 -4.264521 0.754827 -1.200880 3.854107 0.820975 1.647127 0.000000 0.000000 0.000000 0.000000 0.000000 0.000000 -4.456920 -9.036364 -0.705631 9.470066 2.957623 -1.344730 -13.183092 20.554997 0.142123 20.809711 -34.283183 5.345779 0.000000 0.000000 0.000000 0.000000 0.000000 0.000000 -2.663371 0.416402 31.272939 3.725767 -0.987072 -0.857521 -2.909262 -1.350443 -0.902871 0.000000 0.000000 0.000000 -1.460832 1.122964 29.833226 0.246428 -1.396485 0.911244 -0.000000 0.000000 0.000000 0.000000 0.000000 0.000000
57.059643 62.127397 321.822845 0.354280 -0.252218 -30.237173 -0.433091 0.039491 30.238102 -0.000000 0.000000 0.000000 4.340752 0.406201 -2.103805 0.000000 0.000000 0.000000 0.420426 -0.783626 -0.555523 -3.304090 -0.505975 -0.448632 -2.987977 -0.297098 -1.221710 -0.836795 5.153513 2.479471 0.000000 0.000000 0.000000 0.000000 0.000000 0.000000 -4.472658 -9.275022 -0.749728 10.989910 0.995108 -1.692554 -22.270172 30.576772 -1.254244 36.233296 -36.441075 16.314446 0.000000 0.000000 0.000000 0.000000 0.000000 0.000000 -2.431674 0.836046 30.836554 3.095424 -0.965348 -0.976206 -1.773503 -0.773435 0.442250 0.000000 0.000000 0.000000 -1.264744 1.426063 29.315367 0.046394 -1.616147 0.934026 -0.000000 0.000000 0.000000 0.000000 0.000000 0.000000
56.995666 62.004171 321.966613 0.318130 -0.133560 -29.910662 -0.342356 -0.042866 29.910905 0.486250 0.732106 0.038408 4.841755 -1.952792 -1.872777 0.000000 0.000000 0.000000 -0.107996 -1.616473 -0.617986 -4.302057 0.014879 -0.472127 -0.912244 -1.915307 -1.161386 -6.469141 10.679688 4.105841 0.000000 0.000000 0.000000 0.000000 0.000000 0.000000 -5.003306 -9.645359 -0.779752 12.240250 -1.130138 -1.930211 -30.816233 39.339500 -0.525774 51.586735 -43.748406 29.078266 0.000000 0.000000 0.000000 0.000000 0.000000 0.000000 -2.260926 1.173013 30.573863 2.205835 -1.104990 -1.034953 -0.834273 -0.095217 -0.057166 0.000000 0.000000 0.000000 -1.079010 1.529950 29.002343 -0.118210 -1.732720 0.916335 -0.000000 0.000000 0.000000 0.000000 0.000000 0.000000
